<svg width="203" height="184" viewBox="0 0 203 184" fill="none" xmlns="http://www.w3.org/2000/svg">
<path d="M38.6425 32.2179C39.8552 24.5274 50.6195 18.8814 62.7048 19.5869C74.8064 20.2936 83.6969 27.1035 82.5447 34.8167C81.3887 42.5525 70.5778 48.2463 58.4157 47.517C46.2712 46.7876 37.426 39.9298 38.6425 32.2179Z" fill="#527EC9"/>
<path d="M107.975 183.18C160.385 183.18 202.871 181.479 202.871 179.38C202.871 177.281 160.385 175.579 107.975 175.579C55.5648 175.579 13.0782 177.281 13.0782 179.38C13.0782 181.479 55.5648 183.18 107.975 183.18Z" fill="#103878"/>
<path d="M122.278 128.727C124.916 169.031 97.0695 177.052 61.6259 177.052C26.1823 177.052 -1.66538 169.031 0.974069 128.727C3.40196 91.6475 31.0645 47.5303 61.6259 47.5303C92.1873 47.5303 119.851 91.6488 122.278 128.727Z" fill="#576BBA"/>
<path d="M122.278 128.727C124.916 169.031 97.0695 177.052 61.6259 177.052C26.1823 177.052 -1.66538 169.031 0.974069 128.727C3.40196 91.6475 31.0645 47.5303 61.6259 47.5303C92.1873 47.5303 119.851 91.6488 122.278 128.727Z" fill="url(#paint0_linear)"/>
<path fill-rule="evenodd" clip-rule="evenodd" d="M83.8651 88.6186V85.5316C83.8651 84.96 83.6796 84.4879 83.3087 84.1153C82.9357 83.7447 82.4646 83.5591 81.8941 83.5591H40.4791C39.8198 83.5591 39.3641 83.7447 39.0211 84.1153C38.9724 84.1687 38.9538 84.2442 38.9117 84.3023C38.8096 84.4438 38.7049 84.5834 38.6428 84.7564C38.5501 85.0268 38.5074 85.2672 38.5074 85.5309V88.6186C38.5074 89.1902 38.6915 89.6476 39.0645 89.9908C39.4342 90.334 39.9052 90.505 40.4784 90.505H52.6229C59.751 90.505 63.9259 92.9903 65.1663 97.9423H40.4784C39.9059 97.9423 39.4342 98.1286 39.0639 98.4999C38.6915 98.8718 38.5074 99.3433 38.5074 99.9155V103.001C38.5074 103.574 38.6915 104.032 39.0645 104.375C39.4342 104.717 39.9052 104.888 40.4784 104.888H65.1363C65.0296 105.315 64.9041 105.728 64.754 106.118C64.5865 106.529 64.4724 106.773 64.3496 107.009C64.3069 107.092 64.2649 107.178 64.2189 107.26C64.1101 107.454 63.992 107.639 63.8686 107.822C63.8045 107.92 63.7438 108.024 63.6751 108.118C63.619 108.196 63.555 108.265 63.4949 108.34C63.0268 108.938 62.479 109.47 61.8668 109.92C59.7817 111.431 56.9119 112.197 53.2201 112.274H40.4677C39.8952 112.274 39.4235 112.458 39.0532 112.83C38.6815 113.202 38.4954 113.673 38.4954 114.246V117.894C38.4954 118.236 38.5214 118.397 38.5674 118.527C38.5888 118.586 38.6141 118.639 38.6428 118.701C38.6695 118.755 38.6935 118.803 38.7202 118.851C38.837 119.032 38.8804 119.095 38.9177 119.142L39.0211 119.272C39.0652 119.328 39.7651 119.989 40.6739 120.841C42.1365 122.208 43.6 123.574 45.0644 124.939L62.8223 142.283C63.3368 142.684 63.8212 143.013 64.2796 143.269C64.7366 143.527 65.3639 143.656 66.1645 143.656H70.621C71.0774 143.656 71.4778 143.485 71.8208 143.142C72.163 142.799 72.3359 142.398 72.3359 141.94C72.3359 141.483 72.1904 141.083 71.9062 140.74L54.9095 123.86L50.3429 119.324L53.4816 119.234C56.4108 119.154 59.1645 118.749 61.626 118.023C64.2029 117.263 66.4595 116.154 68.237 114.679C70.1079 113.124 71.4998 111.208 72.4206 108.939C72.5721 108.567 72.6982 108.178 72.8229 107.786C72.8803 107.612 72.9471 107.444 72.9991 107.266C73.222 106.504 73.4108 105.719 73.5369 104.888H81.8687C82.4392 104.888 82.9096 104.717 83.2833 104.375C83.6543 104.032 83.8398 103.573 83.8398 103.001V99.9149C83.8398 99.3433 83.6543 98.8718 83.2826 98.4999C82.9103 98.1286 82.4392 97.9423 81.8687 97.9423H73.5282C73.0898 95.039 72.089 92.5576 70.519 90.5056H81.8941C82.4639 90.5056 82.935 90.334 83.308 89.9915C83.679 89.6476 83.8645 89.1902 83.8645 88.6186H83.8651Z" fill="#2C6EB5"/>
<path d="M84.9351 25.0015L82.4745 25.4335C67.9601 27.9832 53.161 27.8862 38.6756 25.1463L38.4225 25.0985C36.3396 24.7042 34.9154 27.3407 36.2288 29.1585L50.5896 49.0315C51.0266 49.6362 51.6902 49.9876 52.3929 49.9876H70.8728C71.5755 49.9876 72.2391 49.6349 72.6761 49.0315L87.1036 29.0665C88.407 27.2614 87.0079 24.6374 84.9351 25.0015Z" fill="#576BBA"/>
<path d="M84.9351 25.0015L82.4745 25.4335C67.9601 27.9832 53.161 27.8862 38.6756 25.1463L38.4225 25.0985C36.3396 24.7042 34.9154 27.3407 36.2288 29.1585L50.5896 49.0315C51.0266 49.6362 51.6902 49.9876 52.3929 49.9876H70.8728C71.5755 49.9876 72.2391 49.6349 72.6761 49.0315L87.1036 29.0665C88.407 27.2614 87.0079 24.6374 84.9351 25.0015Z" fill="url(#paint1_linear)"/>
<path fill-rule="evenodd" clip-rule="evenodd" d="M46.793 49.1166C46.793 47.791 47.8676 46.7163 49.1933 46.7163H73.8487C75.1743 46.7163 76.249 47.791 76.249 49.1166C76.249 50.4423 75.1743 51.517 73.8487 51.517H49.1933C47.8676 51.517 46.793 50.4423 46.793 49.1166Z" fill="#28216F"/>
<path opacity="0.4" d="M106.807 80.7031L23.7656 171.826L33.642 174.531L108.092 82.853L106.807 80.7031Z" fill="#BBBCCB"/>
<path d="M178.438 66.3311L119.765 176.823L31.6062 177.147L136.91 42.8444L117.701 28.0388L197.274 0.180664L197.645 81.1367L178.438 66.3311Z" fill="url(#paint2_linear)"/>
<path opacity="0.4" d="M119.79 176.909H73.8872L197.273 0.180664L197.645 81.1762L178.444 66.3634L119.79 176.909Z" fill="url(#paint3_linear)"/>
<path d="M152.284 129.026C165.498 129.026 176.211 118.31 176.211 105.091C176.211 91.8716 165.498 81.1553 152.284 81.1553C139.069 81.1553 128.356 91.8716 128.356 105.091C128.356 118.31 139.069 129.026 152.284 129.026Z" fill="url(#paint4_linear)"/>
<path d="M148.245 129.028C161.459 129.028 172.172 118.312 172.172 105.092C172.172 91.8731 161.459 81.1567 148.245 81.1567C135.03 81.1567 124.317 91.8731 124.317 105.092C124.317 118.312 135.03 129.028 148.245 129.028Z" fill="url(#paint5_linear)"/>
<path d="M148.244 128.908C161.39 128.908 172.046 118.248 172.046 105.099C172.046 91.949 161.39 81.2891 148.244 81.2891C135.099 81.2891 124.443 91.949 124.443 105.099C124.443 118.248 135.099 128.908 148.244 128.908Z" fill="url(#paint6_linear)"/>
<path fill-rule="evenodd" clip-rule="evenodd" d="M129.943 106.659C130.494 95.4384 140.016 86.7895 151.212 87.3408C157.756 87.663 163.423 91.0578 166.893 96.0636C163.691 89.801 157.33 85.3778 149.814 85.0073C138.617 84.4564 129.095 93.1053 128.545 104.326C128.317 108.988 129.674 113.36 132.141 116.918C130.574 113.853 129.763 110.346 129.943 106.659Z" fill="#FFDC53"/>
<path fill-rule="evenodd" clip-rule="evenodd" d="M154.328 95.5851C154.327 95.3649 154.153 95.1848 153.94 95.1827L141.636 95.041C141.422 95.0385 140.789 95.8006 140.79 96.0213L141.257 97.3941C141.258 97.6143 141.431 97.7944 141.645 97.797L143.72 97.8209C145.829 97.8452 147.162 98.4738 147.69 99.6926L141.651 99.623C141.438 99.6209 140.946 99.7434 140.804 100.489L141.271 101.525C141.271 101.745 141.445 101.925 141.658 101.927L147.867 101.999C147.488 103.702 145.877 104.616 143.274 104.586L141.667 104.567C141.454 104.565 140.818 104.722 140.822 105.548L141.288 106.83C141.288 106.932 141.327 107.03 141.394 107.105C144.124 110.122 146.258 112.755 148.568 115.64C148.64 115.732 148.75 115.787 148.865 115.788L151.21 116.407C151.752 116.413 151.955 115.735 152.018 115.596C152.082 115.458 152.062 115.293 151.967 115.173C149.762 112.37 147.437 109.466 145.268 107.066C148.58 106.744 150.732 104.912 151.147 102.037L153.566 102.65C154.04 102.716 154.35 102.338 154.348 101.675L154.343 100.168C154.342 99.9478 154.169 99.7668 153.955 99.7651L151.099 99.7319C150.935 98.8527 150.591 98.0859 150.074 97.4419L153.487 98.0735C154.009 98.1836 154.333 97.313 154.333 97.0928L154.328 95.5851Z" fill="#D13D23"/>
<path d="M137.705 168.264H87.2507V177.342H137.705V168.264Z" fill="url(#paint7_linear)"/>
<path d="M109.636 168.262H91.9102V177.34H109.636V168.262Z" fill="#FFD54A"/>
<path d="M113.957 168.262H111.605V177.34H113.957V168.262Z" fill="#FFD030"/>
<path d="M87.25 177.332H137.704" stroke="#D13D23" stroke-width="4.9833" stroke-miterlimit="10"/>
<path d="M87.2507 168.264H137.705" stroke="#FFDE57" stroke-width="4.9833" stroke-miterlimit="10"/>
<path d="M192.49 168.264H142.036V177.342H192.49V168.264Z" fill="url(#paint8_linear)"/>
<path d="M164.42 168.262H146.695V177.34H164.42V168.262Z" fill="#FFD54A"/>
<path d="M168.743 168.262H166.39V177.34H168.743V168.262Z" fill="#FFD030"/>
<path d="M142.035 177.332H192.489" stroke="#D13D23" stroke-width="4.9833" stroke-miterlimit="10"/>
<path d="M142.036 168.264H192.49" stroke="#FFDE57" stroke-width="4.9833" stroke-miterlimit="10"/>
<path d="M177.513 158.519H127.058V167.598H177.513V158.519Z" fill="url(#paint9_linear)"/>
<path d="M149.444 158.519H131.718V167.597H149.444V158.519Z" fill="#FFD54A"/>
<path d="M153.767 158.519H151.414V167.597H153.767V158.519Z" fill="#FFD030"/>
<path d="M127.058 167.601H177.512" stroke="#D13D23" stroke-width="4.9833" stroke-miterlimit="10"/>
<path d="M127.058 158.519H177.513" stroke="#FFDE57" stroke-width="4.9833" stroke-miterlimit="10"/>
<path d="M179.915 148.767H129.461V157.845H179.915V148.767Z" fill="url(#paint10_linear)"/>
<path d="M151.847 148.766H134.121V157.844H151.847V148.766Z" fill="#FFD54A"/>
<path d="M156.169 148.766H153.817V157.844H156.169V148.766Z" fill="#FFD030"/>
<path d="M129.461 157.841H179.916" stroke="#D13D23" stroke-width="4.9833" stroke-miterlimit="10"/>
<path d="M129.461 148.767H179.915" stroke="#FFDE57" stroke-width="4.9833" stroke-miterlimit="10"/>
<path d="M174.774 139.011H124.32V148.089H174.774V139.011Z" fill="url(#paint11_linear)"/>
<path d="M146.705 139.01H128.98V148.088H146.705V139.01Z" fill="#FFD54A"/>
<path d="M151.027 139.01H148.675V148.088H151.027V139.01Z" fill="#FFD030"/>
<path d="M124.32 148.085H174.774" stroke="#D13D23" stroke-width="4.9833" stroke-miterlimit="10"/>
<path d="M124.32 139.011H174.774" stroke="#FFDE57" stroke-width="4.9833" stroke-miterlimit="10"/>
<path d="M176.361 129.394H125.906V138.472H176.361V129.394Z" fill="url(#paint12_linear)"/>
<path d="M148.292 129.393H130.566V138.471H148.292V129.393Z" fill="#FFD54A"/>
<path d="M152.613 129.393H150.261V138.471H152.613V129.393Z" fill="#FFD030"/>
<path d="M125.906 138.468H176.36" stroke="#D13D23" stroke-width="4.9833" stroke-miterlimit="10"/>
<path d="M125.906 129.394H176.361" stroke="#FFDE57" stroke-width="4.9833" stroke-miterlimit="10"/>
<path d="M126.955 158.518H76.5008V167.596H126.955V158.518Z" fill="url(#paint13_linear)"/>
<path d="M98.8855 158.517H81.1599V167.596H98.8855V158.517Z" fill="#FFD54A"/>
<path d="M103.209 158.517H100.856V167.596H103.209V158.517Z" fill="#FFD030"/>
<path d="M76.5 167.6H126.954" stroke="#D13D23" stroke-width="4.9833" stroke-miterlimit="10"/>
<path d="M76.5008 158.518H126.955" stroke="#FFDE57" stroke-width="4.9833" stroke-miterlimit="10"/>
<path fill-rule="evenodd" clip-rule="evenodd" d="M90.9185 7.43652L91.0549 19.881L86.6523 19.9293L86.5159 7.48479L90.9185 7.43652Z" fill="#66CC99"/>
<path fill-rule="evenodd" clip-rule="evenodd" d="M105.014 10.9928L93.5775 22.6848L90.43 19.6061L101.867 7.91406L105.014 10.9928Z" fill="#66CC99"/>
<path fill-rule="evenodd" clip-rule="evenodd" d="M93.5862 22.5146H106.028V26.9175H93.5862V22.5146Z" fill="#66CC99"/>
<defs>
<linearGradient id="paint0_linear" x1="27.2423" y1="58.7546" x2="220.157" y2="452.778" gradientUnits="userSpaceOnUse">
<stop stop-color="white"/>
<stop offset="1" stop-color="#231F20"/>
</linearGradient>
<linearGradient id="paint1_linear" x1="62.339" y1="33.9133" x2="69.6997" y2="103.291" gradientUnits="userSpaceOnUse">
<stop stop-color="white"/>
<stop offset="1" stop-color="#231F20"/>
</linearGradient>
<linearGradient id="paint2_linear" x1="114.626" y1="0.180664" x2="114.626" y2="177.147" gradientUnits="userSpaceOnUse">
<stop stop-color="#D468C3"/>
<stop offset="1" stop-color="#3C31A6"/>
</linearGradient>
<linearGradient id="paint3_linear" x1="135.766" y1="0.180664" x2="135.766" y2="176.909" gradientUnits="userSpaceOnUse">
<stop stop-color="#034E80"/>
<stop offset="1" stop-color="#5389AD"/>
</linearGradient>
<linearGradient id="paint4_linear" x1="150.831" y1="99.0105" x2="163.371" y2="151.489" gradientUnits="userSpaceOnUse">
<stop stop-color="#FFA826"/>
<stop offset="0.0369" stop-color="#FB9D25"/>
<stop offset="0.1886" stop-color="#EC7320"/>
<stop offset="0.3438" stop-color="#DF511B"/>
<stop offset="0.5008" stop-color="#D53618"/>
<stop offset="0.6605" stop-color="#CE2316"/>
<stop offset="0.8243" stop-color="#CA1814"/>
<stop offset="0.9987" stop-color="#C91414"/>
</linearGradient>
<linearGradient id="paint5_linear" x1="145.608" y1="100.301" x2="194.868" y2="189.74" gradientUnits="userSpaceOnUse">
<stop stop-color="#FFF23A"/>
<stop offset="0.034" stop-color="#FDE83A"/>
<stop offset="0.1863" stop-color="#F7BE3A"/>
<stop offset="0.3422" stop-color="#F29C39"/>
<stop offset="0.4998" stop-color="#ED8139"/>
<stop offset="0.6602" stop-color="#EA6E39"/>
<stop offset="0.8247" stop-color="#E96339"/>
<stop offset="1" stop-color="#E85F39"/>
</linearGradient>
<linearGradient id="paint6_linear" x1="147.692" y1="103.527" x2="161.478" y2="142.667" gradientUnits="userSpaceOnUse">
<stop stop-color="#FFD519"/>
<stop offset="0.0207" stop-color="#FED118"/>
<stop offset="0.2069" stop-color="#F8AF12"/>
<stop offset="0.645833" stop-color="#F3940D"/>
<stop offset="1" stop-color="#F0810A"/>
</linearGradient>
<linearGradient id="paint7_linear" x1="107.467" y1="172.803" x2="157.921" y2="172.803" gradientUnits="userSpaceOnUse">
<stop stop-color="#FFA826"/>
<stop offset="0.0254" stop-color="#FEA324"/>
<stop offset="0.2107" stop-color="#F48117"/>
<stop offset="0.3998" stop-color="#ED660D"/>
<stop offset="0.5922" stop-color="#E75306"/>
<stop offset="0.7897" stop-color="#E44801"/>
<stop offset="1" stop-color="#E34400"/>
</linearGradient>
<linearGradient id="paint8_linear" x1="162.253" y1="172.803" x2="212.707" y2="172.803" gradientUnits="userSpaceOnUse">
<stop stop-color="#FFA826"/>
<stop offset="0.0254" stop-color="#FEA324"/>
<stop offset="0.2107" stop-color="#F48117"/>
<stop offset="0.3998" stop-color="#ED660D"/>
<stop offset="0.5922" stop-color="#E75306"/>
<stop offset="0.7897" stop-color="#E44801"/>
<stop offset="1" stop-color="#E34400"/>
</linearGradient>
<linearGradient id="paint9_linear" x1="147.275" y1="163.058" x2="197.729" y2="163.058" gradientUnits="userSpaceOnUse">
<stop stop-color="#FFA826"/>
<stop offset="0.0254" stop-color="#FEA324"/>
<stop offset="0.2107" stop-color="#F48117"/>
<stop offset="0.3998" stop-color="#ED660D"/>
<stop offset="0.5922" stop-color="#E75306"/>
<stop offset="0.7897" stop-color="#E44801"/>
<stop offset="1" stop-color="#E34400"/>
</linearGradient>
<linearGradient id="paint10_linear" x1="149.677" y1="153.307" x2="200.132" y2="153.307" gradientUnits="userSpaceOnUse">
<stop stop-color="#FFA826"/>
<stop offset="0.0254" stop-color="#FEA324"/>
<stop offset="0.2107" stop-color="#F48117"/>
<stop offset="0.3998" stop-color="#ED660D"/>
<stop offset="0.5922" stop-color="#E75306"/>
<stop offset="0.7897" stop-color="#E44801"/>
<stop offset="1" stop-color="#E34400"/>
</linearGradient>
<linearGradient id="paint11_linear" x1="144.536" y1="143.551" x2="194.991" y2="143.551" gradientUnits="userSpaceOnUse">
<stop stop-color="#FFA826"/>
<stop offset="0.0254" stop-color="#FEA324"/>
<stop offset="0.2107" stop-color="#F48117"/>
<stop offset="0.3998" stop-color="#ED660D"/>
<stop offset="0.5922" stop-color="#E75306"/>
<stop offset="0.7897" stop-color="#E44801"/>
<stop offset="1" stop-color="#E34400"/>
</linearGradient>
<linearGradient id="paint12_linear" x1="146.123" y1="133.933" x2="196.577" y2="133.933" gradientUnits="userSpaceOnUse">
<stop stop-color="#FFA826"/>
<stop offset="0.0254" stop-color="#FEA324"/>
<stop offset="0.2107" stop-color="#F48117"/>
<stop offset="0.3998" stop-color="#ED660D"/>
<stop offset="0.5922" stop-color="#E75306"/>
<stop offset="0.7897" stop-color="#E44801"/>
<stop offset="1" stop-color="#E34400"/>
</linearGradient>
<linearGradient id="paint13_linear" x1="96.7175" y1="163.056" x2="147.172" y2="163.056" gradientUnits="userSpaceOnUse">
<stop stop-color="#FFA826"/>
<stop offset="0.0254" stop-color="#FEA324"/>
<stop offset="0.2107" stop-color="#F48117"/>
<stop offset="0.3998" stop-color="#ED660D"/>
<stop offset="0.5922" stop-color="#E75306"/>
<stop offset="0.7897" stop-color="#E44801"/>
<stop offset="1" stop-color="#E34400"/>
</linearGradient>
</defs>
</svg>
