<svg width="326" height="252" viewBox="0 0 326 252" fill="none" xmlns="http://www.w3.org/2000/svg">
<path d="M63.3824 250.856C70.8607 251.367 78.7444 249.867 86.2489 249.975C90.2615 249.963 93.9928 247.389 98.306 247.417C100.463 247.431 102.618 247.447 104.776 247.468C106.933 247.489 109.096 247.506 111.293 247.496C116.431 247.44 121.475 247.281 126.693 247.281C141.129 246.964 155.392 248.228 169.863 247.589C172.231 247.524 174.6 247.464 176.97 247.409C179.814 247.342 182.657 247.283 185.502 247.23C188.346 247.178 191.191 247.132 194.036 247.096C215.919 246.65 237.66 244.436 259.922 246.65C263.226 246.966 266.64 247.342 270.081 247.611C273.522 247.882 276.989 248.047 280.404 247.942C293.749 248.22 308.545 240.751 310.354 227.491C310.518 226.576 310.354 225.51 310.19 224.594C309.861 223.221 309.368 222.003 308.381 220.783C307.724 220.172 307.231 219.716 306.572 219.258C298.311 214.457 286.628 209.826 282.482 201.704C281.1 198.99 280.556 195.887 281.254 192.232C282.075 187.707 284.048 183.136 287.83 179.934C324.327 149.602 338.794 97.1685 312.065 58.2767C309.545 54.5599 306.628 50.9603 303.258 47.497C291.979 35.7155 276.827 29.5948 260.159 26.9934C246.692 24.8518 234.065 25.7696 220.765 28.677C215.209 29.9007 210.158 31.2784 204.94 33.2679C203.087 34.0336 201.237 34.7976 199.384 35.7155C195.176 37.8571 191.471 40.0004 187.767 42.7539C184.737 45.0494 182.212 47.3449 179.854 50.4043C174.803 57.4428 171.268 64.1753 166.481 70.8519C164.478 73.6439 162.356 76.303 160.042 78.6946C153.111 85.8712 144.467 90.6597 132.649 88.9936C129.224 88.6754 125.877 87.9464 122.317 87.1475C121.206 86.8974 120.099 86.6195 119.005 86.3083C110.458 83.8765 102.132 81.6474 93.7359 80.2104C85.5516 78.4743 77.4162 78.3153 69.2406 78.8345C68.9609 78.8537 68.6831 78.8747 68.4052 78.8974C59.6931 79.6142 51.2833 82.3275 43.7736 86.6772C43.1898 87.0146 42.6096 87.3503 42.0172 87.6964C40.7047 88.4604 39.4219 89.2768 38.1758 90.1405C34.2593 92.8503 30.4231 95.4797 27.0239 99.179C21.9137 104.74 16.7372 113.915 12.7437 125.244C11.945 127.513 11.1935 129.871 10.4997 132.345C9.13305 136.885 8.19106 141.448 7.61083 146.039C7.41684 147.569 7.26305 149.102 7.1477 150.639C6.98691 153.742 6.8471 156.894 6.77545 160.067C6.73875 161.655 6.71952 163.246 6.737 164.84C7.13372 172.905 8.87439 180.98 11.8751 188.644C12.6249 190.56 13.4778 192.449 14.439 194.323C18.1545 201.847 22.861 208.765 28.2211 215.251C30.9002 218.494 33.7437 221.629 36.7077 224.676C43.2091 231.314 51.0351 236.531 58.599 242.235C60.5022 243.966 62.0542 249.258 63.3824 250.856Z" fill="#F5FAFF"/>
<path d="M216.681 74.8456C209.525 81.9762 196.43 80.4866 196.43 80.4866L222.346 54.6602C222.341 54.6602 223.836 67.7107 216.681 74.8456Z" fill="#51B784"/>
<path d="M222.343 54.6605L196.427 80.4869C196.427 80.4869 194.932 67.4363 202.087 60.3057C209.247 53.1709 222.343 54.6605 222.343 54.6605Z" fill="#66CC99"/>
<path d="M197.35 30.6055H195.988V88.3929H197.35V30.6055Z" fill="#66CC99"/>
<path d="M195.989 30.6055H194.766V88.3929H195.989V30.6055Z" fill="#51B784"/>
<path d="M186.758 16.3792C186.758 25.4201 196.007 32.7525 196.007 32.7525V0.00585938C196.007 0.00585938 186.758 7.33822 186.758 16.3792Z" fill="#51B784"/>
<path d="M196.008 0.00585938V32.7525C196.008 32.7525 205.257 25.4201 205.257 16.3792C205.257 7.33822 196.008 0.00585938 196.008 0.00585938Z" fill="#66CC99"/>
<path d="M177.604 52.2143C184.174 58.7611 196.201 57.3959 196.201 57.3959L172.405 33.6816C172.405 33.6816 171.03 45.6633 177.604 52.2143Z" fill="#51B784"/>
<path d="M172.406 33.6815L196.203 57.3958C196.203 57.3958 197.577 45.4099 191.003 38.8631C184.429 32.3121 172.406 33.6815 172.406 33.6815Z" fill="#66CC99"/>
<path d="M140.58 251.895C217.945 251.895 280.661 250.034 280.661 247.739C280.661 245.443 217.945 243.582 140.58 243.582C63.2161 243.582 0.5 245.443 0.5 247.739C0.5 250.034 63.2161 251.895 140.58 251.895Z" fill="#B5D8F7"/>
<path d="M258.704 195.202C261.416 236.64 232.786 244.886 196.345 244.886C159.904 244.886 131.273 236.64 133.987 195.202C136.483 157.079 164.924 111.721 196.345 111.721C227.766 111.721 256.209 157.081 258.704 195.202Z" fill="#576BBA"/>
<path d="M250.582 64.3725L269.821 79.1935L187.697 185.337L90.831 132.197L9.40234 245.283H43.1869L98.8997 167.873L195.062 220.63L291.544 95.9317L310.783 110.753L320.928 35.543L250.582 64.3725Z" fill="url(#paint0_linear)"/>
<path d="M258.704 195.202C261.416 236.64 232.786 244.886 196.345 244.886C159.904 244.886 131.273 236.64 133.987 195.202C136.483 157.079 164.924 111.721 196.345 111.721C227.766 111.721 256.209 157.081 258.704 195.202Z" fill="url(#paint1_linear)"/>
<path fill-rule="evenodd" clip-rule="evenodd" d="M215.011 158.333V155.681C215.011 155.19 214.855 154.784 214.542 154.464C214.227 154.146 213.83 153.986 213.349 153.986H178.412C177.856 153.986 177.471 154.146 177.182 154.464C177.141 154.51 177.125 154.575 177.09 154.625C177.003 154.746 176.915 154.866 176.863 155.015C176.784 155.247 176.748 155.454 176.748 155.68V158.333C176.748 158.824 176.904 159.216 177.218 159.511C177.53 159.806 177.928 159.953 178.411 159.953H188.656C194.669 159.953 198.191 162.088 199.237 166.342H178.411C177.928 166.342 177.53 166.502 177.218 166.821C176.904 167.14 176.748 167.545 176.748 168.037V170.687C176.748 171.179 176.904 171.572 177.218 171.867C177.53 172.162 177.928 172.308 178.411 172.308H199.212C199.122 172.675 199.016 173.029 198.89 173.365C198.748 173.718 198.652 173.927 198.549 174.13C198.512 174.202 198.477 174.275 198.438 174.346C198.346 174.513 198.247 174.672 198.143 174.829C198.089 174.913 198.037 175.002 197.979 175.083C197.932 175.149 197.878 175.209 197.827 175.273C197.433 175.788 196.97 176.244 196.454 176.631C194.695 177.929 192.274 178.587 189.16 178.652H178.402C177.919 178.652 177.521 178.811 177.209 179.13C176.895 179.45 176.738 179.855 176.738 180.347V183.48C176.738 183.775 176.76 183.913 176.799 184.024C176.817 184.075 176.838 184.121 176.863 184.173C176.885 184.22 176.905 184.262 176.928 184.302C177.026 184.458 177.063 184.512 177.095 184.552L177.182 184.664C177.219 184.712 177.809 185.28 178.576 186.012C179.81 187.187 181.044 188.36 182.28 189.532L197.26 204.431C197.694 204.775 198.103 205.058 198.489 205.278C198.875 205.499 199.404 205.611 200.08 205.611H203.839C204.224 205.611 204.562 205.463 204.851 205.169C205.14 204.874 205.286 204.53 205.286 204.136C205.286 203.744 205.163 203.4 204.923 203.105L190.585 188.606L186.733 184.708L189.38 184.632C191.851 184.563 194.174 184.215 196.251 183.591C198.425 182.938 200.328 181.986 201.828 180.719C203.406 179.383 204.58 177.737 205.357 175.788C205.485 175.468 205.591 175.134 205.696 174.797C205.745 174.648 205.801 174.504 205.845 174.351C206.033 173.696 206.192 173.022 206.299 172.308H213.327C213.809 172.308 214.205 172.162 214.521 171.867C214.834 171.572 214.99 171.179 214.99 170.687V168.036C214.99 167.545 214.834 167.14 214.52 166.821C214.206 166.502 213.809 166.342 213.327 166.342H206.291C205.922 163.848 205.077 161.716 203.753 159.954H213.349C213.829 159.954 214.227 159.806 214.541 159.512C214.854 159.216 215.011 158.824 215.011 158.333H215.011Z" fill="#2C6EB5"/>
<path d="M220.308 88.5586L217.778 89.0028C202.855 91.6242 187.64 91.5245 172.747 88.7075L172.487 88.6583C170.345 88.2529 168.881 90.9637 170.231 92.8326L184.996 113.265C185.445 113.886 186.128 114.248 186.85 114.248H205.85C206.573 114.248 207.255 113.885 207.704 113.265L222.538 92.738C223.878 90.8821 222.439 88.1843 220.308 88.5586Z" fill="#576BBA"/>
<path d="M220.308 88.5586L217.778 89.0028C202.855 91.6242 187.64 91.5245 172.747 88.7075L172.487 88.6583C170.345 88.2529 168.881 90.9637 170.231 92.8326L184.996 113.265C185.445 113.886 186.128 114.248 186.85 114.248H205.85C206.573 114.248 207.255 113.885 207.704 113.265L222.538 92.738C223.878 90.8821 222.439 88.1843 220.308 88.5586Z" fill="#D9E5F2"/>
<path fill-rule="evenodd" clip-rule="evenodd" d="M181.09 113.355C181.09 111.992 182.195 110.887 183.558 110.887H208.907C210.27 110.887 211.375 111.992 211.375 113.355C211.375 114.718 210.27 115.822 208.907 115.822H183.558C182.195 115.822 181.09 114.718 181.09 113.355Z" fill="#28216F"/>
<path d="M139.753 194.773C153.34 194.773 164.354 183.755 164.354 170.164C164.354 156.573 153.34 145.555 139.753 145.555C126.166 145.555 115.152 156.573 115.152 170.164C115.152 183.755 126.166 194.773 139.753 194.773Z" fill="url(#paint2_linear)"/>
<path d="M135.601 194.775C149.187 194.775 160.202 183.757 160.202 170.166C160.202 156.574 149.187 145.557 135.601 145.557C122.014 145.557 111 156.574 111 170.166C111 183.757 122.014 194.775 135.601 194.775Z" fill="url(#paint3_linear)"/>
<path d="M135.6 194.651C149.115 194.651 160.072 183.691 160.072 170.171C160.072 156.651 149.115 145.691 135.6 145.691C122.085 145.691 111.129 156.651 111.129 170.171C111.129 183.691 122.085 194.651 135.6 194.651Z" fill="url(#paint4_linear)"/>
<path fill-rule="evenodd" clip-rule="evenodd" d="M116.787 171.775C117.353 160.238 127.143 151.346 138.654 151.913C145.382 152.244 151.209 155.735 154.776 160.881C151.484 154.442 144.945 149.895 137.217 149.514C125.705 148.947 115.915 157.84 115.35 169.376C115.115 174.169 116.51 178.664 119.046 182.322C117.435 179.171 116.602 175.566 116.787 171.775Z" fill="#FFDC53"/>
<path fill-rule="evenodd" clip-rule="evenodd" d="M141.857 160.391C141.856 160.165 141.677 159.98 141.457 159.978L128.807 159.832C128.588 159.829 127.937 160.613 127.938 160.84L128.418 162.251C128.419 162.478 128.597 162.663 128.816 162.666L130.95 162.69C133.119 162.715 134.489 163.361 135.032 164.614L128.823 164.543C128.604 164.541 128.098 164.667 127.952 165.434L128.432 166.499C128.432 166.724 128.611 166.91 128.83 166.912L135.214 166.986C134.825 168.737 133.168 169.676 130.492 169.646L128.84 169.626C128.62 169.624 127.967 169.785 127.97 170.635L128.45 171.953C128.45 172.058 128.489 172.158 128.559 172.235C131.366 175.337 133.56 178.044 135.934 181.01C136.009 181.106 136.122 181.161 136.24 181.163L138.651 181.799C139.208 181.805 139.417 181.108 139.482 180.966C139.548 180.823 139.527 180.654 139.429 180.531C137.162 177.649 134.772 174.663 132.542 172.195C135.947 171.865 138.16 169.981 138.587 167.025L141.073 167.656C141.56 167.723 141.879 167.334 141.878 166.653L141.872 165.103C141.871 164.877 141.693 164.691 141.474 164.689L138.537 164.655C138.368 163.751 138.015 162.963 137.483 162.3L140.992 162.95C141.528 163.063 141.862 162.168 141.862 161.942L141.857 160.391Z" fill="#D13D23"/>
<path d="M124.761 235.115H72.8867V244.449H124.761V235.115Z" fill="url(#paint5_linear)"/>
<path d="M95.9001 235.113H77.6758V244.447H95.9001V235.113Z" fill="#FFD54A"/>
<path d="M100.344 235.113H97.9258V244.447H100.344V235.113Z" fill="#FFD030"/>
<path d="M72.8867 244.438H124.761" stroke="#D13D23" stroke-width="4.9833" stroke-miterlimit="10"/>
<path d="M72.8867 235.115H124.761" stroke="#FFDE57" stroke-width="4.9833" stroke-miterlimit="10"/>
<path d="M181.089 235.115H129.215V244.449H181.089V235.115Z" fill="url(#paint6_linear)"/>
<path d="M152.228 235.113H134.004V244.447H152.228V235.113Z" fill="#FFD54A"/>
<path d="M156.676 235.113H154.258V244.447H156.676V235.113Z" fill="#FFD030"/>
<path d="M129.215 244.438H181.089" stroke="#D13D23" stroke-width="4.9833" stroke-miterlimit="10"/>
<path d="M129.215 235.115H181.089" stroke="#FFDE57" stroke-width="4.9833" stroke-miterlimit="10"/>
<path d="M165.69 225.094H113.816V234.428H165.69V225.094Z" fill="url(#paint7_linear)"/>
<path d="M136.83 225.094H118.605V234.428H136.83V225.094Z" fill="#FFD54A"/>
<path d="M141.278 225.096H138.859V234.43H141.278V225.096Z" fill="#FFD030"/>
<path d="M113.816 234.432H165.69" stroke="#D13D23" stroke-width="4.9833" stroke-miterlimit="10"/>
<path d="M113.816 225.094H165.69" stroke="#FFDE57" stroke-width="4.9833" stroke-miterlimit="10"/>
<path d="M168.163 215.066H116.289V224.401H168.163V215.066Z" fill="url(#paint8_linear)"/>
<path d="M139.302 215.066H121.078V224.401H139.302V215.066Z" fill="#FFD54A"/>
<path d="M143.747 215.066H141.328V224.401H143.747V215.066Z" fill="#FFD030"/>
<path d="M116.289 224.398H168.163" stroke="#D13D23" stroke-width="4.9833" stroke-miterlimit="10"/>
<path d="M116.289 215.066H168.163" stroke="#FFDE57" stroke-width="4.9833" stroke-miterlimit="10"/>
<path d="M162.878 205.039H111.004V214.373H162.878V205.039Z" fill="url(#paint9_linear)"/>
<path d="M134.013 205.039H115.789V214.373H134.013V205.039Z" fill="#FFD54A"/>
<path d="M138.458 205.039H136.039V214.373H138.458V205.039Z" fill="#FFD030"/>
<path d="M111 214.371H162.874" stroke="#D13D23" stroke-width="4.9833" stroke-miterlimit="10"/>
<path d="M111.004 205.039H162.878" stroke="#FFDE57" stroke-width="4.9833" stroke-miterlimit="10"/>
<path d="M164.511 195.152H112.637V204.486H164.511V195.152Z" fill="url(#paint10_linear)"/>
<path d="M135.65 195.15H117.426V204.485H135.65V195.15Z" fill="#FFD54A"/>
<path d="M140.094 195.15H137.676V204.485H140.094V195.15Z" fill="#FFD030"/>
<path d="M112.637 204.482H164.511" stroke="#D13D23" stroke-width="4.9833" stroke-miterlimit="10"/>
<path d="M112.637 195.152H164.511" stroke="#FFDE57" stroke-width="4.9833" stroke-miterlimit="10"/>
<path d="M113.714 225.09H61.8398V234.424H113.714V225.09Z" fill="url(#paint11_linear)"/>
<path d="M84.8493 225.09H66.625V234.424H84.8493V225.09Z" fill="#FFD54A"/>
<path d="M89.2935 225.09H86.875V234.424H89.2935V225.09Z" fill="#FFD030"/>
<path d="M61.8359 234.428H113.71" stroke="#D13D23" stroke-width="4.9833" stroke-miterlimit="10"/>
<path d="M61.8398 225.09H113.714" stroke="#FFDE57" stroke-width="4.9833" stroke-miterlimit="10"/>
<defs>
<linearGradient id="paint0_linear" x1="165.165" y1="35.543" x2="165.165" y2="245.283" gradientUnits="userSpaceOnUse">
<stop stop-color="#D468C3"/>
<stop offset="1" stop-color="#3C31A6"/>
</linearGradient>
<linearGradient id="paint1_linear" x1="160.994" y1="123.261" x2="359.337" y2="528.371" gradientUnits="userSpaceOnUse">
<stop stop-color="#EFF7FF"/>
<stop offset="1" stop-color="#2C6EB5"/>
</linearGradient>
<linearGradient id="paint2_linear" x1="138.26" y1="163.912" x2="151.152" y2="217.868" gradientUnits="userSpaceOnUse">
<stop stop-color="#FFA826"/>
<stop offset="0.0369" stop-color="#FB9D25"/>
<stop offset="0.1886" stop-color="#EC7320"/>
<stop offset="0.3438" stop-color="#DF511B"/>
<stop offset="0.5008" stop-color="#D53618"/>
<stop offset="0.6605" stop-color="#CE2316"/>
<stop offset="0.8243" stop-color="#CA1814"/>
<stop offset="0.9987" stop-color="#C91414"/>
</linearGradient>
<linearGradient id="paint3_linear" x1="132.89" y1="165.24" x2="183.536" y2="257.195" gradientUnits="userSpaceOnUse">
<stop stop-color="#FFF23A"/>
<stop offset="0.034" stop-color="#FDE83A"/>
<stop offset="0.1863" stop-color="#F7BE3A"/>
<stop offset="0.3422" stop-color="#F29C39"/>
<stop offset="0.4998" stop-color="#ED8139"/>
<stop offset="0.6602" stop-color="#EA6E39"/>
<stop offset="0.8247" stop-color="#E96339"/>
<stop offset="1" stop-color="#E85F39"/>
</linearGradient>
<linearGradient id="paint4_linear" x1="135.032" y1="168.555" x2="149.206" y2="208.797" gradientUnits="userSpaceOnUse">
<stop stop-color="#FFD519"/>
<stop offset="0.0207" stop-color="#FED118"/>
<stop offset="0.2069" stop-color="#F8AF12"/>
<stop offset="0.645833" stop-color="#F3940D"/>
<stop offset="1" stop-color="#F0810A"/>
</linearGradient>
<linearGradient id="paint5_linear" x1="93.6719" y1="239.783" x2="145.546" y2="239.783" gradientUnits="userSpaceOnUse">
<stop stop-color="#FFA826"/>
<stop offset="0.0254" stop-color="#FEA324"/>
<stop offset="0.2107" stop-color="#F48117"/>
<stop offset="0.3998" stop-color="#ED660D"/>
<stop offset="0.5922" stop-color="#E75306"/>
<stop offset="0.7897" stop-color="#E44801"/>
<stop offset="1" stop-color="#E34400"/>
</linearGradient>
<linearGradient id="paint6_linear" x1="150.001" y1="239.783" x2="201.875" y2="239.783" gradientUnits="userSpaceOnUse">
<stop stop-color="#FFA826"/>
<stop offset="0.0254" stop-color="#FEA324"/>
<stop offset="0.2107" stop-color="#F48117"/>
<stop offset="0.3998" stop-color="#ED660D"/>
<stop offset="0.5922" stop-color="#E75306"/>
<stop offset="0.7897" stop-color="#E44801"/>
<stop offset="1" stop-color="#E34400"/>
</linearGradient>
<linearGradient id="paint7_linear" x1="134.602" y1="229.76" x2="186.476" y2="229.76" gradientUnits="userSpaceOnUse">
<stop stop-color="#FFA826"/>
<stop offset="0.0254" stop-color="#FEA324"/>
<stop offset="0.2107" stop-color="#F48117"/>
<stop offset="0.3998" stop-color="#ED660D"/>
<stop offset="0.5922" stop-color="#E75306"/>
<stop offset="0.7897" stop-color="#E44801"/>
<stop offset="1" stop-color="#E34400"/>
</linearGradient>
<linearGradient id="paint8_linear" x1="137.074" y1="219.734" x2="188.948" y2="219.734" gradientUnits="userSpaceOnUse">
<stop stop-color="#FFA826"/>
<stop offset="0.0254" stop-color="#FEA324"/>
<stop offset="0.2107" stop-color="#F48117"/>
<stop offset="0.3998" stop-color="#ED660D"/>
<stop offset="0.5922" stop-color="#E75306"/>
<stop offset="0.7897" stop-color="#E44801"/>
<stop offset="1" stop-color="#E34400"/>
</linearGradient>
<linearGradient id="paint9_linear" x1="131.789" y1="209.707" x2="183.663" y2="209.707" gradientUnits="userSpaceOnUse">
<stop stop-color="#FFA826"/>
<stop offset="0.0254" stop-color="#FEA324"/>
<stop offset="0.2107" stop-color="#F48117"/>
<stop offset="0.3998" stop-color="#ED660D"/>
<stop offset="0.5922" stop-color="#E75306"/>
<stop offset="0.7897" stop-color="#E44801"/>
<stop offset="1" stop-color="#E34400"/>
</linearGradient>
<linearGradient id="paint10_linear" x1="133.422" y1="199.819" x2="185.296" y2="199.819" gradientUnits="userSpaceOnUse">
<stop stop-color="#FFA826"/>
<stop offset="0.0254" stop-color="#FEA324"/>
<stop offset="0.2107" stop-color="#F48117"/>
<stop offset="0.3998" stop-color="#ED660D"/>
<stop offset="0.5922" stop-color="#E75306"/>
<stop offset="0.7897" stop-color="#E44801"/>
<stop offset="1" stop-color="#E34400"/>
</linearGradient>
<linearGradient id="paint11_linear" x1="82.6254" y1="229.756" x2="134.499" y2="229.756" gradientUnits="userSpaceOnUse">
<stop stop-color="#FFA826"/>
<stop offset="0.0254" stop-color="#FEA324"/>
<stop offset="0.2107" stop-color="#F48117"/>
<stop offset="0.3998" stop-color="#ED660D"/>
<stop offset="0.5922" stop-color="#E75306"/>
<stop offset="0.7897" stop-color="#E44801"/>
<stop offset="1" stop-color="#E34400"/>
</linearGradient>
</defs>
</svg>
